{
    "asset" : {
        "generator" : "Khronos Blender glTF 2.0 I/O",
        "version" : "2.0"
    },
    "scene" : 0,
    "scenes" : [
        {
            "name" : "Scene",
            "nodes" : [
                0
            ]
        }
    ],
    "nodes" : [
        {
            "name" : "Plane",
            "mesh" : 0,
            "translation" : [
                -1.9268784523010254,
                -5.9604644775390625e-05,
                -0.9706991314888
            ]
        }
    ],
    "materials" : [
        {
            "name" : "Material.001",
            "pbrMetallicRoughness" : {}
        }
    ],
    "meshes" : [
        {
            "name" : "Plane.001",
            "primitives" : [
                {
                    "indices" : 2,
                    "material" : 0,
                    "attributes" : {
                        "POSITION" : 0,
                        "NORMAL" : 1
                    }
                }
            ]
        }
    ],
    "accessors" : [
        {
            "min" : [
                0.006005287170410156,
                -2.384185791015625e-07,
                -0.2903286814689636
            ],
            "componentType" : 5126,
            "type" : "VEC3",
            "bufferView" : 0,
            "max" : [
                3.72808837890625,
                0.6224853992462158,
                2.499526262283325
            ],
            "count" : 260
        },
        {
            "type" : "VEC3",
            "count" : 260,
            "componentType" : 5126,
            "bufferView" : 1
        },
        {
            "type" : "SCALAR",
            "count" : 402,
            "componentType" : 5123,
            "bufferView" : 2
        }
    ],
    "bufferViews" : [
        {
            "byteLength" : 3120,
            "byteOffset" : 0,
            "buffer" : 0
        },
        {
            "byteLength" : 3120,
            "byteOffset" : 3120,
            "buffer" : 0
        },
        {
            "byteLength" : 804,
            "byteOffset" : 6240,
            "buffer" : 0
        }
    ],
    "buffers" : [
        {
            "byteLength" : 7044,
            "uri" : "data:application/octet-stream;base64,"
        }
    ]
}
