{
    "asset" : {
        "generator" : "Khronos Blender glTF 2.0 I/O",
        "version" : "2.0"
    },
    "scene" : 0,
    "scenes" : [
        {
            "name" : "Scene",
            "nodes" : [
                0
            ]
        }
    ],
    "nodes" : [
        {
            "name" : "Plane",
            "mesh" : 0,
            "translation" : [
                -1.9268784523010254,
                -5.9604644775390625e-05,
                -0.9706991314888
            ]
        }
    ],
    "materials" : [
        {
            "name" : "Material.001",
            "pbrMetallicRoughness" : {}
        }
    ],
    "meshes" : [
        {
            "name" : "Plane.001",
            "primitives" : [
                {
                    "indices" : 2,
                    "material" : 0,
                    "attributes" : {
                        "POSITION" : 0,
                        "NORMAL" : 1
                    }
                }
            ]
        }
    ],
    "accessors" : [
        {
            "min" : [
                -0.003946367651224136,
                -0.024064933881163597,
                -0.2985617518424988
            ],
            "componentType" : 5126,
            "type" : "VEC3",
            "bufferView" : 0,
            "max" : [
                3.736672878265381,
                0.6465499997138977,
                2.523590326309204
            ],
            "count" : 3152
        },
        {
            "type" : "VEC3",
            "count" : 3152,
            "componentType" : 5126,
            "bufferView" : 1
        },
        {
            "type" : "SCALAR",
            "count" : 4728,
            "componentType" : 5123,
            "bufferView" : 2
        }
    ],
    "bufferViews" : [
        {
            "byteLength" : 37824,
            "byteOffset" : 0,
            "buffer" : 0
        },
        {
            "byteLength" : 37824,
            "byteOffset" : 37824,
            "buffer" : 0
        },
        {
            "byteLength" : 9456,
            "byteOffset" : 75648,
            "buffer" : 0
        }
    ],
    "buffers" : [
        {
            "byteLength" : 85104,
            "uri" : "hermitage.bin"
        }
    ]
}
